<?xml version="1.0" encoding="UTF-8" standalone="no"?>
<!DOCTYPE svg PUBLIC "-//W3C//DTD SVG 1.1//EN" "http://www.w3.org/Graphics/SVG/1.1/DTD/svg11.dtd">
<svg width="100%" height="100%" viewBox="0 0 720 240" version="1.1" xmlns="http://www.w3.org/2000/svg" xmlns:xlink="http://www.w3.org/1999/xlink" xml:space="preserve" xmlns:serif="http://www.serif.com/" style="fill-rule:evenodd;clip-rule:evenodd;stroke-linecap:round;stroke-linejoin:round;">
    <g transform="matrix(1,0,0,1,40,20)">
        <path d="M120,0C170,0 200,50 200,110C200,170 170,200 120,200C70,200 40,170 40,110C40,50 70,0 120,0Z" style="fill:rgb(242,214,107);fill-rule:nonzero;"/>
        <path d="M52,110L88,100L108,118L130,98L158,112L188,100" style="fill:none;fill-rule:nonzero;stroke:white;stroke-width:16px;"/>
    </g>
    <g transform="matrix(1,0,0,1,260,155)">
        <text x="0px" y="0px" style="font-family:'HelveticaNeue-Bold', 'Helvetica Neue';font-weight:700;font-size:96px;">M<tspan x="88.032px 147.648px 182.4px 208.128px 273.12px 329.184px " y="0px 0px 0px 0px 0px 0px ">otiPet</tspan></text>
    </g>
</svg>
